# xmcd
#
# Track frame offsets: 
#        150
#        14511
#        36255
#        60218
#        76266
#        87056
#        107291
#        123564
#        127607
#        144393
#        157277
#        178384
#        197953
#        203806
#        216305
#        229127
#
# Disc length: 3386 seconds
#
# Revision: 1
# Processed by: cddbd v1.4PL0 Copyright (c) Steve Scherf et al.
# Submitted via: ExactAudioCopy v0.95a2
#
DISCID=da0d3810
DTITLE=Monsieur Leroc - Oh La La!
DYEAR=2003
DGENRE=Funk
TTITLE0=Hawaii Bikini Inspector
TTITLE1=Don't You Like My Style?
TTITLE2=No Pork, Just Beats
TTITLE3=The Hunt pt 2
TTITLE4=The Hot Carl
TTITLE5=Let The Vibes Do The Talkin'
TTITLE6=Have You Got Soul?
TTITLE7=Mir Is Heiss
TTITLE8=Swing Time Machine
TTITLE9=Ou Yah, Keef Mar Ine?
TTITLE10=Kabuki Bukkake
TTITLE11=Mmhm
TTITLE12=The Hunt pt 1
TTITLE13=Mon Dieu, Les Banlieues
TTITLE14=Gewichte Am Sack
TTITLE15=Roulez Relax
EXTD=
EXTT0=
EXTT1=
EXTT2=
EXTT3=
EXTT4=
EXTT5=
EXTT6=
EXTT7=
EXTT8=
EXTT9=
EXTT10=
EXTT11=
EXTT12=
EXTT13=
EXTT14=
EXTT15=
PLAYORDER=
